<svg xmlns="http://www.w3.org/2000/svg" width="46.282" height="40.496" viewBox="0 0 46.282 40.496">
  <path id="banking" d="M44.835,69.6H43.389V65.988a2.169,2.169,0,0,0-2.169-2.169H37.6V47.909H34.711V63.819H28.926V47.909H26.033V63.819H20.248V47.909H17.356V63.819H11.57V47.909H8.678V63.819H5.062a2.169,2.169,0,0,0-2.169,2.169V69.6H1.446A1.446,1.446,0,0,0,0,71.05v.723a.723.723,0,0,0,.723.723H45.558a.723.723,0,0,0,.723-.723V71.05A1.446,1.446,0,0,0,44.835,69.6ZM5.785,66.711H40.5V69.6H5.785Zm39.8-25.31-21.07-9.178a4.339,4.339,0,0,0-2.744,0L.7,41.4A1.085,1.085,0,0,0,0,42.415v.794a1.085,1.085,0,0,0,1.085,1.085H2.893v1.085a1.085,1.085,0,0,0,1.085,1.085H42.3a1.085,1.085,0,0,0,1.085-1.085V44.294H45.2a1.085,1.085,0,0,0,1.085-1.085v-.794A1.085,1.085,0,0,0,45.583,41.4ZM40.5,43.57H5.785v-1.23l16.989-7.4a1.447,1.447,0,0,1,.733,0l16.989,7.4Z" transform="translate(0 -32)" fill="#b9b9b9"/>
</svg>
