<svg xmlns="http://www.w3.org/2000/svg" xmlns:xlink="http://www.w3.org/1999/xlink" width="47.211" height="41.31" viewBox="0 0 47.211 41.31"><defs><style>.a{opacity:0.05;fill:url(#a);}</style><linearGradient id="a" x1="0.5" x2="0.5" y2="1" gradientUnits="objectBoundingBox"><stop offset="0" stop-color="#cd0141"/><stop offset="1" stop-color="#fc4b4d"/></linearGradient></defs><path class="a" d="M45.736,70.359H44.26V66.671a2.213,2.213,0,0,0-2.213-2.213H38.359V48.229H35.408V64.458h-5.9V48.229H26.556V64.458h-5.9V48.229H17.7V64.458H11.8V48.229H8.852V64.458H5.164a2.213,2.213,0,0,0-2.213,2.213v3.688H1.475A1.475,1.475,0,0,0,0,71.834v.738a.738.738,0,0,0,.738.738H46.473a.738.738,0,0,0,.738-.738v-.738A1.475,1.475,0,0,0,45.736,70.359ZM5.9,67.408H41.31v2.951H5.9ZM46.5,41.59,25.005,32.227a4.426,4.426,0,0,0-2.8,0L.713,41.59A1.106,1.106,0,0,0,0,42.624v.81A1.107,1.107,0,0,0,1.107,44.54H2.951v1.107a1.107,1.107,0,0,0,1.107,1.107h39.1a1.107,1.107,0,0,0,1.107-1.107V44.54H46.1a1.107,1.107,0,0,0,1.107-1.107v-.81A1.106,1.106,0,0,0,46.5,41.59ZM41.31,43.8H5.9V42.548L23.231,35a1.476,1.476,0,0,1,.748,0l17.33,7.549Z" transform="translate(0 -32)"/></svg>