<svg xmlns="http://www.w3.org/2000/svg" width="37.117" height="32.993" viewBox="0 0 37.117 32.993">
  <path id="cart-plus" d="M35.57,4.124H8.331L7.794,1.262A1.547,1.547,0,0,0,6.274,0H.773A.773.773,0,0,0,0,.773v.516a.773.773,0,0,0,.773.773H5.846l4.506,24.033a4.125,4.125,0,1,0,6.622.712h9.355a4.124,4.124,0,1,0,6.446-.894,1.547,1.547,0,0,0-1.5-1.168H12.2l-.773-4.124H32.778a1.547,1.547,0,0,0,1.514-1.231l2.792-13.4A1.547,1.547,0,0,0,35.57,4.124ZM29.9,26.807a2.062,2.062,0,1,1-2.062,2.062A2.064,2.064,0,0,1,29.9,26.807Zm-16.5,0a2.062,2.062,0,1,1-2.062,2.062A2.064,2.064,0,0,1,13.4,26.807Zm18.955-8.248H11.037L8.717,6.186H34.936ZM17.528,12.63v-.516a.773.773,0,0,1,.773-.773h2.32V9.022a.773.773,0,0,1,.773-.773h.516a.773.773,0,0,1,.773.773v2.32H25a.773.773,0,0,1,.773.773v.516A.773.773,0,0,1,25,13.4h-2.32v2.32a.773.773,0,0,1-.773.773h-.516a.773.773,0,0,1-.773-.773V13.4H18.3A.773.773,0,0,1,17.528,12.63Z" fill="#b9b9b9"/>
</svg>
