<svg xmlns="http://www.w3.org/2000/svg" width="127.396" height="127.396" viewBox="0 0 127.396 127.396"><defs><style>.a{fill:#fff;opacity:0.188;}</style></defs><path class="a" d="M111.471,0H15.924A15.939,15.939,0,0,0,0,15.924v71.66a15.939,15.939,0,0,0,15.924,15.924H39.811v20.9A2.977,2.977,0,0,0,42.8,127.4a2.857,2.857,0,0,0,1.767-.6l31.078-23.29h35.83A15.939,15.939,0,0,0,127.4,87.585V15.924A15.939,15.939,0,0,0,111.471,0Zm7.962,87.585a7.986,7.986,0,0,1-7.962,7.962H72.979l-2.115,1.592-23.09,17.318V95.547H15.924a7.986,7.986,0,0,1-7.962-7.962V15.924a7.986,7.986,0,0,1,7.962-7.962h95.547a7.986,7.986,0,0,1,7.962,7.962Zm-87.585-41.8a5.972,5.972,0,1,0,5.972,5.972A5.957,5.957,0,0,0,31.849,45.783Zm31.849,0a5.972,5.972,0,1,0,5.972,5.972A5.957,5.957,0,0,0,63.7,45.783Zm31.849,0a5.972,5.972,0,1,0,5.972,5.972A5.957,5.957,0,0,0,95.547,45.783Z"/></svg>