<svg xmlns="http://www.w3.org/2000/svg" width="105.657" height="105.657" viewBox="0 0 105.657 105.657"><defs><style>.a{opacity:0.189;}.b{fill:#fff;}</style></defs><g class="a" transform="translate(-0.001)"><g transform="translate(48.351 88.706)"><path class="b" d="M237.824,430.464a2.062,2.062,0,1,0,.6,1.459A2.079,2.079,0,0,0,237.824,430.464Z" transform="translate(-234.301 -429.859)"/></g><g transform="translate(0.001 53.026)"><g transform="translate(0)"><path class="b" d="M61.7,274.206V259.021a2.064,2.064,0,0,0-2.835-1.914L23.306,271.428H11.853a11.852,11.852,0,0,0,0,23.7h1.364v12.392a2.064,2.064,0,0,0,2.064,2.064h8.424a2.064,2.064,0,0,0,2.064-2.064v-11.4l33.1,13.311a2.063,2.063,0,0,0,2.834-1.914V292.341a9.3,9.3,0,0,0,0-18.135ZM21.641,305.461h-4.3V295.132h4.3v10.329Zm0-14.456H11.853a7.725,7.725,0,1,1,0-15.45h9.789Zm35.93,13.465h0L25.77,291.68V274.885l22.581-9.094V286.27a2.064,2.064,0,0,0,4.127,0V264.128l5.094-2.051ZM61.7,288.016V278.53a5.172,5.172,0,0,1,0,9.486Z" transform="translate(-0.001 -256.958)"/></g></g><g transform="translate(74.876 77.339)"><path class="b" d="M376.582,374.775H364.9a2.064,2.064,0,1,0,0,4.127h11.684a2.064,2.064,0,1,0,0-4.127Z" transform="translate(-362.835 -374.775)"/></g><g transform="translate(71.488 61.613)"><path class="b" d="M353.971,299.174a2.064,2.064,0,0,0-2.919,0l-4.03,4.03a2.064,2.064,0,0,0,2.919,2.919l4.03-4.03A2.064,2.064,0,0,0,353.971,299.174Z" transform="translate(-346.418 -298.57)"/></g><g transform="translate(71.505 88.707)"><path class="b" d="M354.187,434.633l-4.165-4.165a2.064,2.064,0,0,0-2.919,2.919l4.165,4.165a2.064,2.064,0,1,0,2.918-2.919Z" transform="translate(-346.499 -429.864)"/></g><g transform="translate(11.144)"><path class="b" d="M140.26,0H101.877a8.264,8.264,0,0,0-8.254,8.254V9.08H58.954A4.958,4.958,0,0,0,54,14.033v32.6a4.958,4.958,0,0,0,4.953,4.953h2.132v6.328a2.064,2.064,0,0,0,3.523,1.459L72.4,51.59h40.991a4.958,4.958,0,0,0,4.953-4.953V40.447h21.92a8.264,8.264,0,0,0,8.254-8.254V8.254A8.264,8.264,0,0,0,140.26,0ZM114.213,46.637a.826.826,0,0,1-.825.825H71.542a2.064,2.064,0,0,0-1.459.6l-4.869,4.869v-3.41a2.064,2.064,0,0,0-2.064-2.064h-4.2a.826.826,0,0,1-.825-.825v-32.6a.826.826,0,0,1,.825-.825H93.622V32.192a8.264,8.264,0,0,0,8.254,8.254h12.336Zm30.174-14.445a4.132,4.132,0,0,1-4.127,4.127H101.877a4.132,4.132,0,0,1-4.127-4.127V8.254a4.132,4.132,0,0,1,4.127-4.127H140.26a4.132,4.132,0,0,1,4.127,4.127Z" transform="translate(-54.001)"/></g><g transform="translate(69.283 10.006)"><path class="b" d="M352.955,56.916l-14.123-8.154a2.064,2.064,0,0,0-3.1,1.787V66.857a2.064,2.064,0,0,0,3.1,1.787l14.123-8.154a2.063,2.063,0,0,0,0-3.574Zm-13.091,6.367v-9.16L347.8,58.7Z" transform="translate(-335.736 -48.486)"/></g><g transform="translate(21.568 21.668)"><path class="b" d="M127.212,105H106.576a2.064,2.064,0,0,0,0,4.127h20.636a2.064,2.064,0,0,0,0-4.127Z" transform="translate(-104.512 -105)"/></g><g transform="translate(42.204 33.224)"><path class="b" d="M208.034,161.6a2.062,2.062,0,1,0,.6,1.459A2.078,2.078,0,0,0,208.034,161.6Z" transform="translate(-204.511 -161)"/></g><g transform="translate(21.568 33.224)"><path class="b" d="M119.471,161h-12.9a2.064,2.064,0,1,0,0,4.127h12.9a2.064,2.064,0,0,0,0-4.127Z" transform="translate(-104.512 -161)"/></g></g></svg>