<svg xmlns="http://www.w3.org/2000/svg" width="156.18" height="138.827" viewBox="0 0 156.18 138.827"><defs><style>.a{fill:#fff;opacity:0.183;}</style></defs><path class="a" d="M149.67,17.353H35.054L32.8,5.308A6.508,6.508,0,0,0,26.4,0H3.254A3.254,3.254,0,0,0,0,3.254V5.423A3.254,3.254,0,0,0,3.254,8.677H24.6L43.559,109.8a17.355,17.355,0,1,0,27.866,3h39.361a17.354,17.354,0,1,0,27.122-3.76,6.511,6.511,0,0,0-6.314-4.916H51.323L48.069,86.767h89.853a6.508,6.508,0,0,0,6.371-5.18l11.749-56.4A6.508,6.508,0,0,0,149.67,17.353ZM125.812,112.8a8.677,8.677,0,1,1-8.677,8.677A8.686,8.686,0,0,1,125.812,112.8Zm-69.413,0a8.677,8.677,0,1,1-8.677,8.677A8.686,8.686,0,0,1,56.4,112.8ZM136.158,78.09H46.442L36.681,26.03H147ZM73.752,53.145V50.975a3.254,3.254,0,0,1,3.254-3.254h9.761V37.96a3.254,3.254,0,0,1,3.254-3.254H92.19a3.254,3.254,0,0,1,3.254,3.254v9.761H105.2a3.254,3.254,0,0,1,3.254,3.254v2.169A3.254,3.254,0,0,1,105.2,56.4H95.443V66.16a3.254,3.254,0,0,1-3.254,3.254H90.02a3.254,3.254,0,0,1-3.254-3.254V56.4H77.005A3.254,3.254,0,0,1,73.752,53.145Z"/></svg>