<svg xmlns="http://www.w3.org/2000/svg" width="54.924" height="32.955" viewBox="0 0 54.924 32.955">
  <path id="education" d="M52.535,71.721,29.793,64.368a7.522,7.522,0,0,0-4.661,0L2.39,71.721a3.421,3.421,0,0,0,0,6.524l2.55.824a6.821,6.821,0,0,0-.629,1.7,2.709,2.709,0,0,0,.009,4.914l-1.549,9.6c-.138.857.336,1.671.973,1.671h3.5c.638,0,1.112-.814.973-1.671l-1.548-9.6a2.73,2.73,0,0,0,1.573-2.46,2.7,2.7,0,0,0-1.153-2.177,4.076,4.076,0,0,1,.564-1.1l4.589,1.484L10.985,91.46c0,3.034,7.377,5.492,16.477,5.492s16.477-2.459,16.477-5.492L42.685,81.428l9.849-3.185a3.421,3.421,0,0,0,0-6.523ZM41.148,91.276c-.923.972-5.616,2.93-13.686,2.93S14.7,92.248,13.776,91.276L14.9,82.288,25.132,85.6a7.508,7.508,0,0,0,4.661,0l10.233-3.308ZM51.687,75.633,28.945,82.986a4.785,4.785,0,0,1-2.966,0L10.9,78.111l16.811-3.153a1.372,1.372,0,1,0-.5-2.7L9.722,75.539a6.812,6.812,0,0,0-2.839,1.273L3.236,75.632a.675.675,0,0,1,0-1.3l22.742-7.353a4.807,4.807,0,0,1,2.966,0l22.742,7.353A.676.676,0,0,1,51.687,75.633Z" transform="translate(0 -63.997)" fill="#b9b9b9"/>
</svg>
