<svg xmlns="http://www.w3.org/2000/svg" xmlns:xlink="http://www.w3.org/1999/xlink" width="111.578" height="66.947" viewBox="0 0 111.578 66.947"><defs><style>.a{opacity:0.051;fill:url(#a);}</style><linearGradient id="a" x1="0.5" x2="0.5" y2="1" gradientUnits="objectBoundingBox"><stop offset="0" stop-color="#cd0141"/><stop offset="1" stop-color="#fc4b4d"/></linearGradient></defs><path class="a" d="M106.724,79.687l-46.2-14.938a15.281,15.281,0,0,0-9.468,0L4.855,79.687a6.95,6.95,0,0,0,0,13.253l5.18,1.674a13.856,13.856,0,0,0-1.278,3.452,5.5,5.5,0,0,0,.019,9.983l-3.147,19.5c-.281,1.742.682,3.394,1.977,3.394h7.1c1.3,0,2.259-1.653,1.977-3.394l-3.145-19.5a5.547,5.547,0,0,0,3.2-5A5.479,5.479,0,0,0,14.4,98.627a8.282,8.282,0,0,1,1.145-2.233l9.322,3.014-2.547,20.379c0,6.163,14.986,11.158,33.473,11.158s33.473-4.995,33.473-11.158L86.715,99.408l20.009-6.47a6.949,6.949,0,0,0,0-13.252ZM83.593,119.414c-1.876,1.975-11.409,5.952-27.8,5.952s-25.928-3.977-27.8-5.952l2.282-18.259,20.788,6.721a15.253,15.253,0,0,0,9.468,0l20.788-6.721,2.28,18.259ZM105,87.635,58.8,102.573a9.721,9.721,0,0,1-6.025,0L22.15,92.67,56.3,86.265a2.788,2.788,0,1,0-1.025-5.481l-35.527,6.66a13.838,13.838,0,0,0-5.767,2.586l-7.408-2.4a1.372,1.372,0,0,1,0-2.641l46.2-14.938a9.766,9.766,0,0,1,6.025,0L105,84.992A1.373,1.373,0,0,1,105,87.635Z" transform="translate(0 -63.998)"/></svg>