<svg xmlns="http://www.w3.org/2000/svg" width="197.271" height="147.953" viewBox="0 0 197.271 147.953"><defs><style>.a{fill:#fff;opacity:0.115;}</style></defs><path class="a" d="M178.777,64H18.494A18.5,18.5,0,0,0,0,82.494V193.459a18.5,18.5,0,0,0,18.494,18.494H178.777a18.5,18.5,0,0,0,18.494-18.494V82.494A18.5,18.5,0,0,0,178.777,64ZM18.494,76.329H178.777a6.183,6.183,0,0,1,6.165,6.165V98.445c-8.438,7.128-20.5,16.953-58.025,46.736-6.511,5.163-19.342,17.608-28.281,17.454-8.939.154-21.808-12.291-28.281-17.454C32.827,115.4,20.767,105.573,12.329,98.445V82.494A6.183,6.183,0,0,1,18.494,76.329ZM178.777,199.624H18.494a6.183,6.183,0,0,1-6.165-6.165V114.474c8.785,7.205,22.655,18.34,50.358,40.34,7.9,6.319,21.846,20.228,35.948,20.151,14.025.116,27.857-13.678,35.948-20.151,27.7-22,41.573-33.135,50.358-40.34v78.985A6.183,6.183,0,0,1,178.777,199.624Z" transform="translate(0 -64)"/></svg>