<svg xmlns="http://www.w3.org/2000/svg" width="133.932" height="117.223" viewBox="0 0 133.932 117.223"><defs><style>.a{fill:#fff;opacity:0.148;}</style></defs><path class="a" d="M122.629,43.643C110.829,32.052,98.114,32,94.791,32A38.642,38.642,0,0,0,66.979,43.617,38.694,38.694,0,0,0,39.167,32c-3.323,0-16.064.052-27.838,11.643a37.632,37.632,0,0,0-2.486,51.15H40.449l7.823-18.785,14.887,33.071a4.183,4.183,0,0,0,7.561.157l13-26.007,5.782,11.564h35.583a37.665,37.665,0,0,0-2.459-51.15ZM121.007,86.42H94.686L87.465,71.978a4.18,4.18,0,0,0-7.483,0L67.188,97.592,51.961,63.763a4.194,4.194,0,0,0-7.692.1L34.876,86.42H12.951C10.544,82.6,1.805,64.783,17.739,49.085a30.467,30.467,0,0,1,21.428-8.712c8.869,0,14.259,1.648,27.812,14.992,14.39-14.181,19.492-14.992,27.812-14.992a30.362,30.362,0,0,1,21.4,8.712c15.96,15.724,7.195,33.542,4.814,37.335ZM70.3,139.637a4.185,4.185,0,0,1-5.861,0L28.492,103.165H16.745L58.58,145.6a12.515,12.515,0,0,0,17.608,0l41.025-42.437H105.57Z" transform="translate(0 -32)"/></svg>