<svg xmlns="http://www.w3.org/2000/svg" width="44.085" height="38.585" viewBox="0 0 44.085 38.585">
  <path id="health" d="M40.365,35.832a12.871,12.871,0,0,0-18.318-.009,12.871,12.871,0,0,0-18.318.009,12.387,12.387,0,0,0-.818,16.837h10.4l2.575-6.183,4.9,10.886a1.377,1.377,0,0,0,2.489.052l4.28-8.56,1.9,3.807H41.174a12.4,12.4,0,0,0-.81-16.837Zm-.534,14.081H31.167L28.79,45.159a1.376,1.376,0,0,0-2.463,0L22.116,53.59,17.1,42.455a1.381,1.381,0,0,0-2.532.034L11.48,49.913H4.263A9.769,9.769,0,0,1,5.839,37.624a10.029,10.029,0,0,1,7.053-2.868c2.919,0,4.694.543,9.155,4.935,4.737-4.668,6.416-4.935,9.155-4.935a9.994,9.994,0,0,1,7.045,2.868,9.772,9.772,0,0,1,1.585,12.289ZM23.141,67.43a1.378,1.378,0,0,1-1.929,0L9.379,55.425H5.512L19.282,69.393a4.119,4.119,0,0,0,5.8,0l13.5-13.969H34.75Z" transform="translate(0 -32)" fill="#b9b9b9"/>
</svg>
