<svg xmlns="http://www.w3.org/2000/svg" width="39.501" height="42.135" viewBox="0 0 39.501 42.135">
  <path id="insurance" d="M53.07,6.887,37.27.3a3.95,3.95,0,0,0-3.039,0l-15.8,6.583A3.95,3.95,0,0,0,16,10.533c0,16.334,9.422,27.627,18.231,31.3a3.95,3.95,0,0,0,3.039,0C44.314,38.895,55.5,28.743,55.5,10.533A3.95,3.95,0,0,0,53.07,6.887ZM36.257,39.4a1.369,1.369,0,0,1-1.013,0c-8.052-3.19-16.61-14.382-16.61-28.866a1.313,1.313,0,0,1,.81-1.215l15.8-6.583a1.316,1.316,0,0,1,1.013,0l15.8,6.583a1.313,1.313,0,0,1,.81,1.215C52.867,25.017,44.309,36.208,36.257,39.4Zm11.9-24.647L33.309,29.485a.988.988,0,0,1-1.4-.006l-7.067-7.124a.988.988,0,0,1,.006-1.4l.7-.7a.988.988,0,0,1,1.4.006l5.676,5.722,13.45-13.342a.988.988,0,0,1,1.4.006l.7.7A.987.987,0,0,1,48.161,14.752Z" transform="translate(-16 0.001)" fill="#b9b9b9"/>
</svg>
