<svg xmlns="http://www.w3.org/2000/svg" xmlns:xlink="http://www.w3.org/1999/xlink" width="45.504" height="48.537" viewBox="0 0 45.504 48.537"><defs><style>.a{opacity:0.05;fill:url(#a);}</style><linearGradient id="a" x1="0.5" x2="0.5" y2="1" gradientUnits="objectBoundingBox"><stop offset="0" stop-color="#cd0141"/><stop offset="1" stop-color="#fc4b4d"/></linearGradient></defs><path class="a" d="M58.7,7.933,40.5.349a4.55,4.55,0,0,0-3.5,0L18.8,7.933a4.55,4.55,0,0,0-2.8,4.2C16,30.95,26.854,43.959,37,48.186a4.55,4.55,0,0,0,3.5,0c8.115-3.381,21-15.075,21-36.053a4.55,4.55,0,0,0-2.8-4.2ZM39.335,45.386a1.577,1.577,0,0,1-1.167,0c-9.276-3.675-19.135-16.568-19.135-33.252a1.513,1.513,0,0,1,.933-1.4l18.2-7.584a1.516,1.516,0,0,1,1.167,0l18.2,7.584a1.513,1.513,0,0,1,.933,1.4C58.47,28.818,48.611,41.711,39.335,45.386ZM53.048,16.993,35.939,33.965a1.138,1.138,0,0,1-1.609-.006l-8.141-8.207a1.138,1.138,0,0,1,.006-1.609l.808-.8a1.138,1.138,0,0,1,1.609.006l6.539,6.592,15.494-15.37a1.138,1.138,0,0,1,1.609.006l.8.808A1.137,1.137,0,0,1,53.048,16.993Z" transform="translate(-16 0)"/></svg>