<svg xmlns="http://www.w3.org/2000/svg" width="77.719" height="155.438" viewBox="0 0 77.719 155.438"><defs><style>.a{fill:#fff;opacity:0.194;}</style></defs><path class="a" d="M58.259,78.721,22.375,67.457C14.937,65.12,9.715,57.378,9.715,48.665c0-10.777,7.772-19.521,17.3-19.521h22.4A26.381,26.381,0,0,1,67.67,36.582a2.443,2.443,0,0,0,3.339.091l3.613-3.279a2.441,2.441,0,0,0,.121-3.522A36.614,36.614,0,0,0,49.455,19.4H43.717V2.429A2.436,2.436,0,0,0,41.288,0H36.431A2.436,2.436,0,0,0,34,2.429v17H27.019C12.113,19.43,0,32.545,0,48.665,0,61.6,8.015,73.135,19.46,76.717L55.344,87.98C62.813,90.318,68,98.059,68,106.772c0,10.747-7.772,19.521-17.3,19.521h-22.4a26.381,26.381,0,0,1-18.246-7.438,2.443,2.443,0,0,0-3.339-.091l-3.582,3.279a2.4,2.4,0,0,0-.091,3.491,36.614,36.614,0,0,0,25.289,10.474H34v17a2.436,2.436,0,0,0,2.429,2.429h4.857a2.436,2.436,0,0,0,2.429-2.429v-17H50.7c14.906,0,27.019-13.115,27.019-29.236,0-12.9-8.015-24.439-19.46-28.052Z"/></svg>