<svg xmlns="http://www.w3.org/2000/svg" width="156.191" height="156.191" viewBox="0 0 156.191 156.191">
  <g id="Group_411" data-name="Group 411" transform="translate(-16217 1091)" opacity="0.19">
    <path id="comment-alt-dots" d="M136.667,0H19.524A19.542,19.542,0,0,0,0,19.524v87.858a19.542,19.542,0,0,0,19.524,19.524H48.81v25.625a3.65,3.65,0,0,0,3.661,3.661,3.5,3.5,0,0,0,2.166-.732l38.1-28.554h43.929a19.542,19.542,0,0,0,19.524-19.524V19.524A19.542,19.542,0,0,0,136.667,0Zm9.762,107.382a9.791,9.791,0,0,1-9.762,9.762H89.474L86.881,119.1l-28.31,21.232V117.144H19.524a9.791,9.791,0,0,1-9.762-9.762V19.524a9.791,9.791,0,0,1,9.762-9.762H136.667a9.791,9.791,0,0,1,9.762,9.762Z" transform="translate(16217 -1091)" fill="#fff"/>
    <path id="bell" d="M28.006,60.022a4.008,4.008,0,0,1-4-4.005H20a8,8,0,1,0,16.006,0h-4A4.008,4.008,0,0,1,28.006,60.022ZM54.188,41.866c-3.5-3.329-6.17-6.812-6.17-18.621,0-9.952-7.927-18.069-18.012-19.051V2a2,2,0,1,0-4,0V4.2c-10.085.982-18.012,9.1-18.012,19.049,0,11.807-2.675,15.292-6.171,18.621A5.82,5.82,0,0,0,.416,48.273,5.967,5.967,0,0,0,6,52.019H50.014A5.968,5.968,0,0,0,55.6,48.271,5.818,5.818,0,0,0,54.188,41.866Z" transform="translate(16267.004 -1059)" fill="#fff"/>
  </g>
</svg>
