<svg xmlns="http://www.w3.org/2000/svg" width="35.609" height="40.695" viewBox="0 0 35.609 40.695">
  <path id="real-estate" d="M15.261,8.5v3.179a.954.954,0,0,1-.954.954H11.128a.954.954,0,0,1-.954-.954V8.5a.954.954,0,0,1,.954-.954h3.179A.954.954,0,0,1,15.261,8.5Zm9.22-.954H21.3a.954.954,0,0,0-.954.954v3.179a.954.954,0,0,0,.954.954h3.179a.954.954,0,0,0,.954-.954V8.5A.954.954,0,0,0,24.481,7.551Zm-10.174,7.63H11.128a.954.954,0,0,0-.954.954v3.179a.954.954,0,0,0,.954.954h3.179a.954.954,0,0,0,.954-.954V16.135A.954.954,0,0,0,14.307,15.181Zm10.174,0H21.3a.954.954,0,0,0-.954.954v3.179a.954.954,0,0,0,.954.954h3.179a.954.954,0,0,0,.954-.954V16.135A.954.954,0,0,0,24.481,15.181Zm-10.174,7.63H11.128a.954.954,0,0,0-.954.954v3.179a.954.954,0,0,0,.954.954h3.179a.954.954,0,0,0,.954-.954V23.766A.954.954,0,0,0,14.307,22.812Zm10.174,0H21.3a.954.954,0,0,0-.954.954v3.179a.954.954,0,0,0,.954.954h3.179a.954.954,0,0,0,.954-.954V23.766A.954.954,0,0,0,24.481,22.812ZM35.609,39.106V40.7H0v-1.59a.954.954,0,0,1,.954-.954h1.59V1.908A1.908,1.908,0,0,1,4.451,0H31.158a1.908,1.908,0,0,1,1.908,1.908V38.152h1.59A.954.954,0,0,1,35.609,39.106Zm-5.087-.954V2.543H5.087V38.152H15.261V31.4a.954.954,0,0,1,.954-.954h3.179a.954.954,0,0,1,.954.954v6.756Z" fill="#b9b9b9"/>
</svg>
