<svg xmlns="http://www.w3.org/2000/svg" width="106.646" height="121.881" viewBox="0 0 106.646 121.881"><defs><style>.a{fill:#fff;opacity:0.19;}</style></defs><path class="a" d="M45.705,25.471v9.522a2.857,2.857,0,0,1-2.857,2.857H33.327a2.857,2.857,0,0,1-2.857-2.857V25.471a2.857,2.857,0,0,1,2.857-2.857h9.522A2.857,2.857,0,0,1,45.705,25.471Zm27.614-2.857H63.8a2.857,2.857,0,0,0-2.857,2.857v9.522A2.857,2.857,0,0,0,63.8,37.85h9.522a2.857,2.857,0,0,0,2.857-2.857V25.471A2.857,2.857,0,0,0,73.319,22.615ZM42.849,45.467H33.327a2.857,2.857,0,0,0-2.857,2.857v9.522A2.857,2.857,0,0,0,33.327,60.7h9.522a2.857,2.857,0,0,0,2.857-2.857V48.324A2.857,2.857,0,0,0,42.849,45.467Zm30.47,0H63.8a2.857,2.857,0,0,0-2.857,2.857v9.522A2.857,2.857,0,0,0,63.8,60.7h9.522a2.857,2.857,0,0,0,2.857-2.857V48.324A2.857,2.857,0,0,0,73.319,45.467ZM42.849,68.32H33.327a2.857,2.857,0,0,0-2.857,2.857V80.7a2.857,2.857,0,0,0,2.857,2.857h9.522A2.857,2.857,0,0,0,45.705,80.7V71.176A2.857,2.857,0,0,0,42.849,68.32Zm30.47,0H63.8a2.857,2.857,0,0,0-2.857,2.857V80.7A2.857,2.857,0,0,0,63.8,83.555h9.522A2.857,2.857,0,0,0,76.175,80.7V71.176A2.857,2.857,0,0,0,73.319,68.32Zm33.327,48.8v4.761H0V117.12a2.857,2.857,0,0,1,2.857-2.857H7.618V5.713A5.713,5.713,0,0,1,13.331,0H93.315a5.713,5.713,0,0,1,5.713,5.713v108.55h4.761A2.857,2.857,0,0,1,106.646,117.12ZM91.41,114.263V7.618H15.235V114.263h30.47V94.029a2.857,2.857,0,0,1,2.857-2.857h9.522a2.857,2.857,0,0,1,2.857,2.857v20.234Z"/></svg>