<svg xmlns="http://www.w3.org/2000/svg" width="44.006" height="30.751" viewBox="0 0 44.006 30.751">
  <path id="travel" d="M5.548,85.092a2.8,2.8,0,0,0,2.031.873l8.737-.012a5.082,5.082,0,0,0,2.231-.522L38.014,75.8a11.873,11.873,0,0,0,4.7-3.993c1.234-1.872,1.539-3.451.9-4.695-.8-1.569-2.888-2.111-5-2.111A12.19,12.19,0,0,0,33.2,66.348L26.829,69.5l-14.351-5.25A1.768,1.768,0,0,0,11.566,64a1.787,1.787,0,0,0-.787.184l-4.4,2.176a1.721,1.721,0,0,0-.954,1.326,1.644,1.644,0,0,0,.787,1.6l9.388,5.77L9.829,77.914,5.237,75.657a1.782,1.782,0,0,0-1.57,0L.981,76.987a1.725,1.725,0,0,0-.934,1.207,1.7,1.7,0,0,0,.39,1.47ZM4.453,77.719l5.379,2.643,10.31-5.1L8.163,67.928l3.389-1.676L26.96,71.889l7.22-3.572A10.015,10.015,0,0,1,38.62,67.2c1.121,0,2.7.247,3.041.912.235.461-.058,1.391-.781,2.489a9.688,9.688,0,0,1-3.84,3.234L17.574,83.462a2.867,2.867,0,0,1-1.26.294l-8.735.012a.605.605,0,0,1-.432-.183L2.52,78.676l1.934-.957ZM43.469,92.554H.638a.549.549,0,0,0-.549.549v1.1a.549.549,0,0,0,.549.549H43.469a.549.549,0,0,0,.549-.549V93.1A.549.549,0,0,0,43.469,92.554Z" transform="translate(-0.012 -64)" fill="#b9b9b9"/>
</svg>
