<svg xmlns="http://www.w3.org/2000/svg" xmlns:xlink="http://www.w3.org/1999/xlink" width="54.931" height="38.385" viewBox="0 0 54.931 38.385"><defs><style>.a{opacity:0.05;fill:url(#a);}</style><linearGradient id="a" x1="0.5" x2="0.5" y2="1" gradientUnits="objectBoundingBox"><stop offset="0" stop-color="#cd0141"/><stop offset="1" stop-color="#fc4b4d"/></linearGradient></defs><path class="a" d="M6.923,90.328a3.5,3.5,0,0,0,2.535,1.09L20.364,91.4a6.344,6.344,0,0,0,2.785-.652l24.3-12.022a14.82,14.82,0,0,0,5.867-4.985c1.541-2.337,1.921-4.308,1.129-5.861-.995-1.959-3.6-2.636-6.24-2.636a15.216,15.216,0,0,0-6.759,1.683l-7.958,3.937L15.574,64.314A2.207,2.207,0,0,0,14.434,64a2.231,2.231,0,0,0-.983.23l-5.49,2.716A2.149,2.149,0,0,0,6.771,68.6a2.053,2.053,0,0,0,.983,2l11.719,7.2-7.206,3.565L6.534,78.551a2.224,2.224,0,0,0-1.96,0L1.221,80.212A2.153,2.153,0,0,0,.055,81.719a2.128,2.128,0,0,0,.487,1.834Zm-1.367-9.2,6.714,3.3,12.869-6.367L10.186,68.9l4.23-2.092L33.65,73.847l9.012-4.459a12.5,12.5,0,0,1,5.544-1.4c1.4,0,3.375.308,3.8,1.138.293.575-.072,1.736-.975,3.107a12.093,12.093,0,0,1-4.794,4.037l-24.3,12.022a3.578,3.578,0,0,1-1.572.368l-10.9.015a.755.755,0,0,1-.54-.228L3.142,82.319l2.414-1.194Zm48.7,18.518H.793a.685.685,0,0,0-.685.685V101.7a.685.685,0,0,0,.685.685H54.258a.685.685,0,0,0,.685-.685v-1.371A.685.685,0,0,0,54.258,99.643Z" transform="translate(-0.012 -64)"/></svg>