<svg width="6" height="8" viewBox="0 0 6 8" fill="none" xmlns="http://www.w3.org/2000/svg">
<path d="M1.1133 0.666646C0.989128 0.791554 0.919434 0.960522 0.919434 1.13665C0.919434 1.31277 0.989128 1.48174 1.1133 1.60665L3.4733 3.99998L1.1133 6.35998C0.989128 6.48489 0.919434 6.65385 0.919434 6.82998C0.919434 7.0061 0.989128 7.17507 1.1133 7.29998C1.17527 7.36246 1.249 7.41206 1.33024 7.44591C1.41148 7.47975 1.49862 7.49718 1.58663 7.49718C1.67464 7.49718 1.76177 7.47975 1.84301 7.44591C1.92425 7.41206 1.99799 7.36246 2.05996 7.29998L4.88663 4.47331C4.94911 4.41134 4.99871 4.3376 5.03256 4.25636C5.0664 4.17512 5.08383 4.08799 5.08383 3.99998C5.08383 3.91197 5.0664 3.82483 5.03256 3.74359C4.99871 3.66235 4.94911 3.58862 4.88663 3.52665L2.05996 0.666646C1.99799 0.60416 1.92425 0.554564 1.84301 0.520718C1.76177 0.486872 1.67464 0.469446 1.58663 0.469446C1.49862 0.469446 1.41148 0.486872 1.33024 0.520718C1.249 0.554564 1.17527 0.60416 1.1133 0.666646Z" fill="black" fill-opacity="0.6"/>
</svg>
