<svg width="658" height="1685" viewBox="0 0 658 1685" fill="none" xmlns="http://www.w3.org/2000/svg">
<g opacity="0.03">
<path d="M160.099 1427.01C144.861 1405.91 128.842 1385.3 114.667 1363.55C93.4038 1330.9 77.6691 1295.49 67.8881 1257.66C56.2642 1212.76 54.6341 1167.36 62.9267 1121.68C77.9526 1038.88 118.211 968.263 172.503 906.005C215.312 856.993 262.304 811.592 307.594 764.775C353.239 717.604 396.332 668.308 430.424 611.859C458.208 565.821 478.975 516.879 491.095 464.467C504.774 405.397 508.105 345.76 502.152 285.486C500.521 268.7 499.033 251.913 499.458 234.277C503.923 243.768 509.239 252.976 512.57 262.821C524.974 299.509 538.653 335.986 548.292 373.383C564.169 435.002 567.713 497.968 559.916 561.288C549.852 642.881 521.572 718.029 479.967 788.644C435.811 863.509 378.542 927.962 319.998 991.494C280.874 1033.99 242.387 1076.91 210.847 1125.71C159.532 1205.04 140.608 1290.88 156.059 1384.16C157.264 1391.24 158.185 1398.33 159.461 1405.34C160.737 1411.93 162.296 1418.51 163.785 1425.1C162.58 1425.67 161.375 1426.3 160.099 1427.01Z" fill="black"/>
<path d="M627.262 584.773C633.215 610.838 639.523 636.832 644.981 663.038C654.195 707.305 658.093 752.068 657.81 797.256C657.313 872.262 641.579 943.515 608.337 1011.08C576.726 1075.25 532.995 1130.71 487.35 1185.04C443.548 1237.17 398.825 1288.66 363.599 1347.3C335.957 1393.34 316.82 1442.28 309.874 1496.04C303.212 1547.82 306.614 1598.81 316.253 1649.81C318.379 1661.14 320.506 1672.4 321.073 1684.65C313.914 1673.82 306.33 1663.26 299.739 1652.07C276.916 1613.61 257.071 1573.67 244.951 1530.39C230.563 1479.18 226.168 1427.27 235.524 1374.5C246.794 1310.97 273.869 1254.16 308.173 1200.34C353.038 1129.86 407.826 1067.11 460.417 1002.66C494.013 961.434 526.9 919.717 552.912 873.112C581.971 820.912 602.667 765.879 613.511 706.951C620.599 668.492 622.938 629.82 624.285 590.935C624.356 589.023 624.639 587.111 624.852 585.198C625.631 585.057 626.411 584.915 627.262 584.773Z" fill="#FC3A52"/>
<path d="M135.588 689.984C60.3873 689.843 -0.0708148 628.718 6.22548e-05 552.933C0.0709393 479.131 61.734 417.794 135.8 417.936C211.568 418.077 272.381 478.847 272.451 554.279C272.593 630.489 208.308 691.401 135.588 689.984Z" fill="black"/>
<path d="M617.563 87.6845C600.907 99.8668 584.251 111.978 567.595 124.161C562.633 127.773 558.026 131.952 552.711 134.926C544.135 139.601 544.347 145.48 547.324 153.696C554.908 174.873 561.712 196.263 568.729 217.653C569.792 220.769 570.217 224.098 571.422 229.906C556.963 219.424 544.489 210.358 531.944 201.292C522.871 194.705 513.587 188.26 504.798 181.248C498.632 176.29 493.812 177.281 487.787 181.814C467.942 196.759 447.671 211.208 427.542 225.798C426.195 226.79 424.778 227.498 420.95 229.906C424.565 218.361 427.471 209.154 430.377 200.017C435.764 183.16 441.079 166.303 446.749 149.517C448.876 143.284 447.246 139.672 441.788 135.918C421.659 121.894 401.955 107.304 382.181 92.8549C379.983 91.2967 377.999 89.3843 373.675 85.8429C383.244 85.8429 390.473 85.7721 397.632 85.8429C417.761 85.9846 437.961 85.9138 458.09 86.4804C465.674 86.6929 468.792 83.6473 470.989 76.6354C478.786 50.9958 487.291 25.5687 497.71 0C503.026 16.3612 508.413 32.7223 513.728 49.1543C516.634 58.2202 519.682 67.2861 522.234 76.4937C524.289 84.0723 528.825 86.6221 536.48 86.4096C560.082 85.9138 583.613 85.9846 607.215 85.8429C610.475 85.8429 613.736 85.8429 616.996 85.8429C617.138 86.3387 617.35 86.9762 617.563 87.6845Z" fill="#FC3A52"/>
</g>
</svg>
