<svg width="601" height="1685" viewBox="0 0 601 1685" fill="none" xmlns="http://www.w3.org/2000/svg">
<g opacity="0.05">
<path d="M103.099 1427.01C87.8605 1405.91 71.8423 1385.3 57.6669 1363.55C36.4038 1330.9 20.6691 1295.49 10.8881 1257.66C-0.735779 1212.76 -2.36595 1167.36 5.92666 1121.68C20.9526 1038.88 61.2107 968.263 115.503 906.005C158.312 856.993 205.304 811.592 250.594 764.775C296.239 717.604 339.332 668.308 373.424 611.859C401.208 565.821 421.975 516.879 434.095 464.467C447.774 405.397 451.105 345.76 445.152 285.486C443.521 268.7 442.033 251.913 442.458 234.277C446.923 243.768 452.239 252.976 455.57 262.821C467.974 299.509 481.653 335.986 491.292 373.383C507.169 435.002 510.713 497.968 502.916 561.288C492.852 642.881 464.572 718.029 422.967 788.644C378.811 863.509 321.542 927.962 262.998 991.494C223.874 1033.99 185.387 1076.91 153.847 1125.71C102.532 1205.04 83.6079 1290.88 99.0591 1384.16C100.264 1391.24 101.185 1398.33 102.461 1405.34C103.737 1411.93 105.296 1418.51 106.785 1425.1C105.58 1425.67 104.375 1426.3 103.099 1427.01Z" fill="white"/>
<path d="M570.262 584.773C576.215 610.838 582.523 636.832 587.981 663.038C597.195 707.305 601.093 752.068 600.81 797.256C600.313 872.262 584.579 943.515 551.337 1011.08C519.726 1075.25 475.995 1130.71 430.35 1185.04C386.548 1237.17 341.825 1288.66 306.599 1347.3C278.957 1393.34 259.82 1442.28 252.874 1496.04C246.212 1547.82 249.614 1598.81 259.253 1649.81C261.379 1661.14 263.506 1672.4 264.073 1684.65C256.914 1673.82 249.33 1663.26 242.739 1652.07C219.916 1613.61 200.071 1573.67 187.951 1530.39C173.563 1479.18 169.168 1427.27 178.524 1374.5C189.794 1310.97 216.869 1254.16 251.173 1200.34C296.038 1129.86 350.826 1067.11 403.417 1002.66C437.013 961.434 469.9 919.717 495.912 873.112C524.971 820.912 545.667 765.879 556.511 706.951C563.599 668.492 565.938 629.82 567.285 590.935C567.356 589.023 567.639 587.111 567.852 585.198C568.631 585.057 569.411 584.915 570.262 584.773Z" fill="#FC3A52"/>
<path d="M560.563 87.6845C543.907 99.8668 527.251 111.978 510.595 124.161C505.633 127.773 501.026 131.952 495.711 134.926C487.135 139.601 487.347 145.48 490.324 153.696C497.908 174.873 504.712 196.263 511.729 217.653C512.792 220.769 513.217 224.098 514.422 229.906C499.963 219.424 487.489 210.358 474.944 201.292C465.871 194.705 456.587 188.26 447.798 181.248C441.632 176.29 436.812 177.281 430.787 181.814C410.942 196.759 390.671 211.208 370.542 225.798C369.195 226.79 367.778 227.498 363.95 229.906C367.565 218.361 370.471 209.154 373.377 200.017C378.764 183.16 384.079 166.303 389.749 149.517C391.876 143.284 390.246 139.672 384.788 135.918C364.659 121.894 344.955 107.304 325.181 92.8549C322.983 91.2967 320.999 89.3843 316.675 85.8429C326.244 85.8429 333.473 85.7721 340.632 85.8429C360.761 85.9846 380.961 85.9138 401.09 86.4804C408.674 86.6929 411.792 83.6473 413.989 76.6354C421.786 50.9958 430.291 25.5687 440.71 0C446.026 16.3612 451.413 32.7223 456.728 49.1543C459.634 58.2202 462.682 67.2861 465.234 76.4937C467.289 84.0723 471.825 86.6221 479.48 86.4096C503.082 85.9138 526.613 85.9846 550.215 85.8429C553.475 85.8429 556.736 85.8429 559.996 85.8429C560.138 86.3387 560.35 86.9762 560.563 87.6845Z" fill="#FC3A52"/>
</g>
</svg>
