<svg width="8" height="14" viewBox="0 0 8 14" fill="none" xmlns="http://www.w3.org/2000/svg">
<path d="M0.372417 0.392844C0.133886 0.641675 -5.69198e-07 0.978277 -5.53861e-07 1.32913C-5.38525e-07 1.67999 0.133886 2.01659 0.372417 2.26543L4.90609 7.0332L0.372417 11.7346C0.133886 11.9834 -7.34347e-08 12.32 -5.80982e-08 12.6709C-4.27617e-08 13.0217 0.133886 13.3583 0.372417 13.6072C0.491475 13.7316 0.633122 13.8304 0.789187 13.8979C0.945252 13.9653 1.11265 14 1.28171 14C1.45078 14 1.61818 13.9653 1.77424 13.8979C1.93031 13.8304 2.07195 13.7316 2.19101 13.6072L7.62117 7.97613C7.74121 7.85267 7.83649 7.70579 7.90151 7.54395C7.96652 7.38211 8 7.20852 8 7.0332C8 6.85788 7.96652 6.6843 7.90151 6.52246C7.83649 6.36062 7.74121 6.21373 7.62117 6.09027L2.19101 0.392844C2.07195 0.268366 1.9303 0.169565 1.77424 0.102141C1.61818 0.0347165 1.45078 1.84393e-06 1.28171 1.85132e-06C1.11265 1.85871e-06 0.945251 0.0347166 0.789186 0.102141C0.633121 0.169565 0.491475 0.268366 0.372417 0.392844Z" fill="white"/>
</svg>
